HIERARCHY
ROOT Elbow
{
	OFFSET	0.00	0.00	0.00
	CHANNELS 6 Xposition Yposition Zposition Zrotation Xrotation Yrotation
	JOINT L_Wrist
	{
		OFFSET	 0.208349	 0.000000	 0.000000
		CHANNELS 3 Zrotation Xrotation Yrotation
		JOINT L_index_Proximal
		{
			OFFSET	 0.093499	 0.010637	-0.002083
			CHANNELS 3 Zrotation Xrotation Yrotation
			JOINT L_index_b
			{
				OFFSET	 0.033152	 0.000000	 0.000000
				CHANNELS 3 Zrotation Xrotation Yrotation
				JOINT L_index_c
				{
					OFFSET	 0.018652	 0.000000	 0.000000
					CHANNELS 3 Zrotation Xrotation Yrotation
					End Site
					{
						OFFSET	 0.018652	 0.000000	 0.000000
					}
				}
			}
		}
		JOINT L_middle_Proximal
		{
			OFFSET	 0.090632	-0.006115	-0.003750
			CHANNELS 3 Zrotation Xrotation Yrotation
			JOINT L_middle_b
			{
				OFFSET	 0.037194	 0.000000	 0.000000
				CHANNELS 3 Zrotation Xrotation Yrotation
				JOINT L_middle_c
				{
					OFFSET	 0.021943	 0.000000	 0.000000
					CHANNELS 3 Zrotation Xrotation Yrotation
					End Site
					{
						OFFSET	 0.021943	 0.000000	 0.000000
					}
				}
			}
		}
		JOINT L_pinky_Proximal
		{
			OFFSET	 0.074015	-0.035449	-0.000417
			CHANNELS 3 Zrotation Xrotation Yrotation
			JOINT L_pinky_b
			{
				OFFSET	 0.027285	 0.000000	 0.000000
				CHANNELS 3 Zrotation Xrotation Yrotation
				JOINT L_pinky_c
				{
					OFFSET	 0.015093	 0.000000	 0.000000
					CHANNELS 3 Zrotation Xrotation Yrotation
					End Site
					{
						OFFSET	 0.015093	 0.000000	 0.000000
					}
				}
			}
		}
		JOINT L_ring_Proximal
		{
			OFFSET	 0.082801	-0.021859	-0.003750
			CHANNELS 3 Zrotation Xrotation Yrotation
			JOINT L_ring_b
			{
				OFFSET	 0.034477	 0.000000	 0.000000
				CHANNELS 3 Zrotation Xrotation Yrotation
				JOINT L_ring_c
				{
					OFFSET	 0.021377	 0.000000	 0.000000
					CHANNELS 3 Zrotation Xrotation Yrotation
					End Site
					{
						OFFSET	 0.021377	 0.000000	 0.000000
					}
				}
			}
		}
		JOINT L_thumb_Proximal
		{
			OFFSET	 0.030306	 0.018528	 0.004584
			CHANNELS 3 Zrotation Xrotation Yrotation
			JOINT L_thumb_a
			{
				OFFSET	 0.038520	 0.000000	 0.000000
				CHANNELS 3 Zrotation Xrotation Yrotation
				JOINT L_thumb_b
				{
					OFFSET	 0.026310	 0.000000	 0.000000
					CHANNELS 3 Zrotation Xrotation Yrotation
					End Site
					{
						OFFSET	 0.026310	 0.000000	 0.000000
					}
				}
			}
		}
	}
}
MOTION
Frames:    19
Frame Time: 0.01666667
 2.397095	-0.577747	 1.694486	 45.304810	 27.196400	-144.404700	 5.714474	 2.028545	 11.588070	-2.037344	 1.349561	-68.173230	-5.913791	 5.397502	-84.765870	-0.189538	 0.082370	-46.986660	-15.257380	-3.906742	-70.094600	-1.489883	 1.497865	-90.308870	-0.882065	 0.379342	-46.541190	-37.361290	-12.040920	-70.127900	-4.854813	 4.314145	-83.243680	 0.118822	-0.053150	-48.191200	-24.689160	-6.319681	-73.791340	-1.842865	 1.946302	-93.129570	 2.224407	-0.900603	-44.079250	 65.542850	 49.395580	-51.038140	-2.850093	 0.385923	-15.418820	-4.329904	 1.256828	-32.359050
 2.396509	-0.577261	 1.694800	 45.448080	 27.324950	-144.456100	 5.830094	 2.036767	 11.635910	-2.033217	 1.347007	-68.223850	-5.940344	 5.407222	-84.611890	-0.200569	 0.087062	-46.932460	-15.244590	-3.917461	-70.098500	-1.527997	 1.533072	-90.190710	-0.873133	 0.375265	-46.514850	-37.345710	-12.058700	-70.091910	-4.832709	 4.293586	-83.231450	 0.124198	-0.055497	-48.151480	-24.671250	-6.335722	-73.793760	-1.866843	 1.968962	-93.050580	 2.207751	-0.893962	-44.083840	 65.466160	 49.387980	-51.135140	-2.864379	 0.387603	-15.410160	-4.270035	 1.241673	-32.414740
 2.395782	-0.577020	 1.694834	 45.567370	 27.436370	-144.418400	 5.916324	 2.036770	 11.635740	-2.032799	 1.364899	-68.254970	-6.008858	 5.456702	-84.476330	-0.301363	 0.130541	-46.836770	-15.237730	-3.908298	-70.067230	-1.628454	 1.631054	-90.091220	-0.954075	 0.409811	-46.489390	-37.311100	-12.080630	-70.013200	-4.844124	 4.303293	-83.225650	 0.087670	-0.039158	-48.127510	-24.643810	-6.345885	-73.756480	-1.944897	 2.049524	-93.001400	 2.132898	-0.863742	-44.087760	 65.359660	 49.387470	-51.298790	-2.935026	 0.398964	-15.479400	-4.320689	 1.263867	-32.597540
 2.395132	-0.576766	 1.694959	 45.666400	 27.552580	-144.387500	 6.018894	 2.024411	 11.563980	-2.021354	 1.356599	-68.172970	-5.993578	 5.430756	-84.349110	-0.293070	 0.126565	-46.706030	-15.229100	-3.918068	-70.006000	-1.668256	 1.669193	-90.031750	-0.985308	 0.422555	-46.422540	-37.301050	-12.094510	-69.960040	-4.875974	 4.328931	-83.190480	 0.065071	-0.029082	-48.144850	-24.632570	-6.353709	-73.757480	-1.994030	 2.098470	-92.924330	 2.115940	-0.857735	-44.128180	 65.243550	 49.403630	-51.389950	-2.902176	 0.394148	-15.465080	-4.369017	 1.272323	-32.458720
 2.394488	-0.576907	 1.694695	 45.584130	 27.759380	-144.166700	 6.133663	 1.999845	 11.421660	-2.000506	 1.339111	-67.922330	-5.943087	 5.373787	-84.230760	-0.250102	 0.107125	-46.360070	-15.192560	-3.954761	-69.862820	-1.627519	 1.626310	-89.955900	-0.978907	 0.418438	-46.287050	-37.245550	-12.162390	-69.743460	-4.924700	 4.375471	-83.233270	-0.057074	 0.025507	-48.225240	-24.617730	-6.376181	-73.596630	-1.983603	 2.088588	-92.954440	 2.066886	-0.836192	-44.049910	 65.136850	 49.363660	-51.623600	-2.869861	 0.392696	-15.580680	-4.353613	 1.264537	-32.378520
 2.394155	-0.576884	 1.694782	 45.627620	 27.905060	-144.170700	 6.363226	 2.004742	 11.449570	-2.004192	 1.339543	-67.874380	-5.903593	 5.326180	-84.102870	-0.308096	 0.131594	-46.248990	-15.176490	-3.972436	-69.825200	-1.658977	 1.653566	-89.809910	-1.009396	 0.431499	-46.290490	-37.236270	-12.176440	-69.704030	-4.929708	 4.376761	-83.191880	-0.109049	 0.048807	-48.235750	-24.629150	-6.371024	-73.562770	-2.025274	 2.129547	-92.875060	 2.033488	-0.823217	-44.075210	 65.017130	 49.385090	-51.695140	-2.859454	 0.392532	-15.629440	-4.256543	 1.241619	-32.510940
 2.393282	-0.577091	 1.694333	 45.520960	 28.114270	-143.912900	 6.515061	 1.994799	 11.392480	-2.002413	 1.363253	-68.263370	-5.853882	 5.244942	-83.705880	-0.428191	 0.181333	-45.892050	-15.190340	-3.919391	-70.136600	-1.594685	 1.580954	-89.497530	-0.935249	 0.399380	-46.244210	-37.172690	-12.198790	-69.784610	-4.915567	 4.359913	-83.135640	-0.039854	 0.017885	-48.314830	-24.623540	-6.353576	-73.626090	-2.032118	 2.129014	-92.666000	 2.045830	-0.826579	-43.997580	 64.782300	 49.359090	-52.048310	-2.828409	 0.387449	-15.596850	-4.414276	 1.281088	-32.353190
 2.392900	-0.576962	 1.694338	 45.541480	 28.250290	-143.842100	 6.684994	 1.992985	 11.381810	-2.036378	 1.383643	-68.387310	-5.823500	 5.209592	-83.619090	-0.497753	 0.210563	-45.857400	-15.199340	-3.916361	-70.200090	-1.631835	 1.617221	-89.483960	-0.975834	 0.416701	-46.248260	-37.174940	-12.196180	-69.857050	-4.911838	 4.359096	-83.168840	-0.025229	 0.011354	-48.376930	-24.634430	-6.353295	-73.630670	-2.073581	 2.172965	-92.682440	 1.979769	-0.799138	-43.958290	 64.743700	 49.269260	-52.294330	-2.883936	 0.395219	-15.604180	-4.283181	 1.247533	-32.464210
 2.392527	-0.577460	 1.693654	 45.259820	 28.518500	-143.455100	 6.740561	 1.975403	 11.280160	-2.026255	 1.355328	-68.688950	-5.673959	 5.051177	-83.345180	-0.495579	 0.209289	-45.792160	-15.185650	-3.947556	-70.290490	-1.584557	 1.571138	-89.510620	-0.974353	 0.414602	-46.102020	-37.147870	-12.204670	-70.135700	-4.830665	 4.299212	-83.330090	 0.062085	-0.028008	-48.443560	-24.616680	-6.373686	-73.873980	-1.996006	 2.093445	-92.730650	 2.076459	-0.836284	-43.865030	 64.458230	 49.176630	-52.738920	-2.832564	 0.388857	-15.631100	-4.290534	 1.242255	-32.282970
 2.392403	-0.577581	 1.693267	 45.115730	 28.707710	-143.345600	 6.775589	 1.976668	 11.287600	-2.032892	 1.364692	-68.828360	-5.631943	 5.008661	-83.286450	-0.460937	 0.194708	-45.801240	-15.193700	-3.936664	-70.334070	-1.573782	 1.562448	-89.583710	-0.981376	 0.416984	-46.040500	-37.151870	-12.175990	-70.316700	-4.753311	 4.238729	-83.443180	 0.126450	-0.056949	-48.439960	-24.634670	-6.338353	-74.083210	-1.930427	 2.026392	-92.781000	 2.158653	-0.869348	-43.865390	 64.169500	 49.160310	-53.090960	-2.799267	 0.384436	-15.637790	-4.199932	 1.212328	-32.194300
 2.392281	-0.577695	 1.693209	 45.022810	 28.847870	-143.265500	 6.877355	 1.982934	 11.324000	-2.044552	 1.377052	-68.994690	-5.579669	 4.959075	-83.251340	-0.479117	 0.202531	-45.824490	-15.193910	-3.929986	-70.426170	-1.575959	 1.565889	-89.631700	-0.974730	 0.413815	-46.005830	-37.167650	-12.135520	-70.527270	-4.698578	 4.196898	-83.537870	 0.160211	-0.072059	-48.419600	-24.649980	-6.305494	-74.308800	-1.894418	 1.989609	-92.808890	 2.200514	-0.886597	-43.884090	 63.898180	 49.126290	-53.468550	-2.786818	 0.383728	-15.677240	-4.145342	 1.190081	-32.026580
 2.392095	-0.578072	 1.692740	 44.811810	 29.079940	-143.055100	 7.096707	 1.987170	 11.348590	-2.132003	 1.454607	-69.303010	-5.534856	 4.921917	-83.281920	-0.549605	 0.233256	-45.982410	-15.185660	-3.909717	-70.762810	-1.524869	 1.521270	-89.863420	-0.975413	 0.415752	-46.162170	-37.203780	-12.035760	-71.043930	-4.655764	 4.177550	-83.795800	 0.237662	-0.106730	-48.315980	-24.675910	-6.233169	-74.854970	-1.822297	 1.918668	-92.951940	 2.406665	-0.970870	-43.929550	 63.335700	 49.112700	-54.116140	-2.771435	 0.381944	-15.690290	-4.084891	 1.162472	-31.760800
 2.392063	-0.578343	 1.692483	 44.704160	 29.173010	-142.939500	 7.154951	 1.985735	 11.340260	-2.189490	 1.504998	-69.398080	-5.484740	 4.891325	-83.443590	-0.547772	 0.233149	-46.107770	-15.199220	-3.886208	-70.892840	-1.506053	 1.507796	-90.061710	-1.049186	 0.448482	-46.280640	-37.204240	-11.990830	-71.352270	-4.613660	 4.147158	-83.898470	 0.322941	-0.144912	-48.309430	-24.681000	-6.203749	-75.108410	-1.742025	 1.838417	-93.085840	 2.496556	-1.007882	-43.960250	 63.120780	 49.095930	-54.400640	-2.742836	 0.376750	-15.640250	-4.072743	 1.154641	-31.645680
 2.391860	-0.578455	 1.692643	 44.567040	 29.528460	-142.856000	 7.281301	 1.997092	 11.405900	-2.269667	 1.575271	-69.635250	-5.423735	 4.860714	-83.723770	-0.582840	 0.249332	-46.311780	-15.270710	-3.812809	-71.071020	-1.558948	 1.570700	-90.425830	-1.150473	 0.492867	-46.375560	-37.179850	-11.962290	-71.701640	-4.555469	 4.106392	-84.058420	 0.371256	-0.166923	-48.429220	-24.715310	-6.147620	-75.392300	-1.718577	 1.821271	-93.322170	 2.553166	-1.033822	-44.084000	 62.885350	 49.003860	-54.898720	-2.742462	 0.376790	-15.642150	-4.135742	 1.168174	-31.533380
 2.391514	-0.578241	 1.692812	 44.606240	 29.731010	-142.858900	 7.372591	 2.003186	 11.441300	-2.305710	 1.607896	-69.705810	-5.469770	 4.911798	-83.837520	-0.595287	 0.255512	-46.453370	-15.292360	-3.795094	-71.050550	-1.672893	 1.689832	-90.573270	-1.225405	 0.525473	-46.416530	-37.141590	-11.989190	-71.720150	-4.539355	 4.096013	-84.116060	 0.365327	-0.164600	-48.513400	-24.728850	-6.133479	-75.398220	-1.788948	 1.897828	-93.381730	 2.494776	-1.013220	-44.204170	 62.867920	 48.910070	-55.166740	-2.806598	 0.387128	-15.701820	-4.057345	 1.151273	-31.671630
 2.390422	-0.577845	 1.692914	 44.739830	 30.065540	-142.787900	 7.573342	 1.993618	 11.385720	-2.319990	 1.618419	-69.685870	-5.476856	 4.941675	-84.109840	-0.667027	 0.286925	-46.547820	-15.280870	-3.812574	-70.963290	-1.793240	 1.819568	-90.832790	-1.330423	 0.570575	-46.423870	-37.082140	-12.025200	-71.807900	-4.487596	 4.052713	-84.164640	 0.401772	-0.181512	-48.625180	-24.725550	-6.135411	-75.414730	-1.844444	 1.960299	-93.487950	 2.407706	-0.981928	-44.370060	 62.902500	 48.784100	-55.453940	-2.837033	 0.394731	-15.839270	-4.020888	 1.143058	-31.727490
 2.389767	-0.577615	 1.693125	 44.892300	 30.182180	-142.813000	 7.725842	 1.990675	 11.368850	-2.301994	 1.601326	-69.669870	-5.477649	 4.941646	-84.102360	-0.692819	 0.297905	-46.535310	-15.246860	-3.843417	-70.958190	-1.846116	 1.873317	-90.838130	-1.366028	 0.585770	-46.418440	-37.076810	-12.023860	-71.862520	-4.475883	 4.040585	-84.142720	 0.405994	-0.183351	-48.606190	-24.709630	-6.147735	-75.458610	-1.868084	 1.983586	-93.436230	 2.375080	-0.970938	-44.465460	 62.883560	 48.767620	-55.511950	-2.823378	 0.392980	-15.844990	-4.056282	 1.154712	-31.768120
 2.388267	-0.577380	 1.693377	 45.271250	 30.276850	-142.839800	 8.097141	 1.982249	 11.319950	-2.305762	 1.601810	-69.619930	-5.470931	 4.933956	-84.083150	-0.736097	 0.316117	-46.482110	-15.210970	-3.871114	-70.999080	-1.989899	 2.019437	-90.843520	-1.512246	 0.648660	-46.428700	-37.059580	-12.033750	-71.898740	-4.467128	 4.032745	-84.143590	 0.343958	-0.155003	-48.515960	-24.699280	-6.153151	-75.512950	-1.939870	 2.056698	-93.349520	 2.278561	-0.934260	-44.585020	 62.775930	 48.812230	-55.514690	-2.825897	 0.395658	-15.937640	-4.012463	 1.147332	-31.903740
 2.387443	-0.577222	 1.693544	 45.455460	 30.326320	-142.843700	 8.265982	 1.972840	 11.265420	-2.350345	 1.637348	-69.585880	-5.495528	 4.960075	-84.128430	-0.790729	 0.339509	-46.471230	-15.214340	-3.866038	-71.022780	-2.090359	 2.123420	-90.897920	-1.592188	 0.682937	-46.428390	-37.040130	-12.050620	-71.888930	-4.478813	 4.043277	-84.143310	 0.314167	-0.141464	-48.482330	-24.699700	-6.153581	-75.501460	-1.993034	 2.112545	-93.335090	 2.223554	-0.912428	-44.617490	 62.720670	 48.822660	-55.550740	-2.852413	 0.400868	-15.996020	-4.042724	 1.159844	-32.003620
